{"title":"Total Recall(2012)MP-4[Dascubadude]","uid":12337820,"size":1446734631,"categoryP":"video","categoryS":"movies","magnet":"?xt=urn:btih:f68b0353603776c181ba1a0548a185a557c0aa9a&amp;dn=Total+Recall%282012%29MP-4%5BDascubadude%5D&amp;tr=udp%3A%2F%2Ftracker.openbittorrent.com%3A80&amp;tr=udp%3A%2F%2Fopen.demonii.com%3A1337&amp;tr=udp%3A%2F%2Ftracker.coppersurfer.tk%3A6969&amp;tr=udp%3A%2F%2Fexodus.desync.com%3A6969","seeders":0,"leechers":0,"uploader":"dascuba","files":1,"time":1441263753,"description":"Total Recall (I) (2012)\nPG-13  |  118 min  |  Action, Adventure, Mystery  |  3 August 2012 (USA)\n6.3 Your rating:   -/10   Ratings: 6.3/10 from 189,218 users   Metascore: 43/100 \nReviews: 528 user | 397 critic | 41 from Metacritic.com\nA factory worker, Douglas Quaid, begins to suspect that he is a spy after visiting Rekall - a company that provides its clients with implanted fake memories of a life they would like to have led - goes wrong and he finds himself on the run.\n\nDirector: Len Wiseman\nWriters: Kurt Wimmer (screenplay), Mark Bomback (screenplay), 10 more credits Â»\nStars: Colin Farrell, Bokeem Woodbine, Bryan Cranston \n\nGeneral\nComplete name                    : C:Total Recall (2012)Total Recall_Title1.mp4\nFormat                                   : MPEG-4\nFormat profile                           : Base Media\nCodec ID                                 : isom\nFile size                                : 1.35 GiB\nDuration                                 : 1h 58mn\nOverall bit rate mode                    : Constant\nOverall bit rate                         : 1 632 Kbps\nMovie name                               : Total_Recall_Title1\nWriting application                      : Lavf54.6.100\n\nVideo\nID                                       : 1\nFormat                                   : MPEG-4 Visual\nFormat settings, BVOP                    : No\nFormat settings, QPel                    : No\nFormat settings, GMC                     : No warppoints\nFormat settings, Matrix                  : Default (H.263)\nCodec ID                                 : 20\nDuration                                 : 1h 58mn\nBit rate mode                            : Constant\nBit rate                                 : 1 499 Kbps\nWidth                                    : 720 pixels\nHeight                                   : 404 pixels\nDisplay aspect ratio                     : 16:9\nFrame rate mode                          : Constant\nFrame rate                               : 29.970 fps\nColor space                              : YUV\nChroma subsampling                       : 4:2:0\nBit depth                                : 8 bits\nScan type                                : Progressive\nCompression mode                         : Lossy\nBits/(Pixel*Frame)                       : 0.172\nStream size                              : 1.24 GiB (92%)\nWriting library                          : Lavc54.23.100\n\nAudio\nID                                       : 2\nFormat                                   : MPEG Audio\nFormat version                           : Version 1\nFormat profile                           : Layer 3\nCodec ID                                 : 6B\nDuration                                 : 1h 58mn\nBit rate mode                            : Constant\nBit rate                                 : 128 Kbps\nChannel(s)                               : 2 channels\nSampling rate                            : 44.1 KHz\nCompression mode                         : Lossy\nStream size                              : 108 MiB (8%)\nWriting library                          : LAME3.99.5","torrent":{"xt":"urn:btih:f68b0353603776c181ba1a0548a185a557c0aa9a","amp;dn":"Total+Recall%282012%29MP-4%5BDascubadude%5D","amp;tr":["udp%3A%2F%2Ftracker.openbittorrent.com%3A80","udp%3A%2F%2Fopen.demonii.com%3A1337","udp%3A%2F%2Ftracker.coppersurfer.tk%3A6969","udp%3A%2F%2Fexodus.desync.com%3A6969"],"infoHash":"f68b0353603776c181ba1a0548a185a557c0aa9a","infoHashBuffer":{"type":"Buffer","data":[246,139,3,83,96,55,118,193,129,186,26,5,72,161,133,165,87,192,170,154]},"announce":[],"urlList":[]}}